<svg width="1366" height="1366" viewBox="0 0 1366 1366" fill="none" xmlns="http://www.w3.org/2000/svg">
<mask id="m1" style="mask-type:alpha" maskUnits="userSpaceOnUse" x="139" y="164" width="1087" height="1038">
<path d="M150.895 164.933C150.362 165.333 149.962 232.267 149.962 313.6V461.333H520.628C800.762 461.333 891.295 461.733 891.295 462.933C891.295 463.733 840.362 515.467 778.095 577.867C715.828 640.267 634.095 722.4 596.628 760.267C559.028 798.267 527.828 829.333 527.162 829.333C526.495 829.333 525.962 780.933 525.962 718C525.962 629.867 525.562 606.667 524.362 606.533C516.362 605.867 349.428 605.6 341.028 606.267L330.095 606.933L321.028 615.867C301.962 634.533 153.695 785.2 151.962 787.467C135.562 810.933 135.162 839.467 150.895 866C157.162 876.4 183.162 903.867 291.295 1014C313.695 1036.67 343.695 1067.33 358.228 1082C458.495 1184 467.562 1192.8 475.695 1195.87C485.428 1199.33 490.628 1199.33 500.095 1195.87C509.428 1192.4 517.028 1184.93 521.828 1174.8L525.295 1167.33L525.695 1042.27C525.828 973.6 526.495 917.333 526.895 917.333C527.428 917.333 539.295 928.933 553.295 943.067C567.162 957.2 608.895 999.6 645.962 1037.2C683.028 1074.8 734.628 1127.07 760.628 1153.47L807.962 1201.33H1017.03C1195.96 1201.33 1225.96 1201.07 1225.96 1199.47C1225.96 1198.4 1206.63 1177.87 1183.03 1153.73C1159.29 1129.73 1128.89 1098.67 1115.29 1084.67C1089.96 1058.8 1005.03 972.533 984.495 952.133C959.162 926.667 874.495 839.733 873.562 838C872.228 835.6 874.628 835.067 892.628 834C915.962 832.667 948.895 826.533 970.628 819.333C1005.56 807.733 1042.89 789.067 1067.29 770.933C1111.29 738.133 1146.36 698.4 1169.56 655.333C1184.36 627.6 1198.36 591.2 1203.29 567.333C1204.76 560.667 1207.16 547.2 1210.09 530C1212.09 518.4 1212.23 466.133 1210.23 454.533C1209.43 449.867 1208.09 441.2 1207.16 435.333C1203.03 407.733 1190.09 366.933 1177.96 343.333C1163.03 314.4 1147.96 292.533 1126.76 268.933C1116.49 257.467 1091.29 234.533 1078.63 225.2C1074.23 222 1070.36 219.067 1069.96 218.667C1067.56 216 1026.09 192 1024.09 192C1023.56 192 1020.76 190.8 1017.56 189.467C999.695 181.467 976.095 174.267 951.295 169.333C925.162 164 925.695 164 531.162 164C322.495 164 151.295 164.4 150.895 164.933Z" fill="black"/>
</mask>
<g mask="url(#m1)">
<rect width="1173" height="857" transform="matrix(1 0 0 -1 84 836)" fill="url(#p0_1)"/>
<g filter="url(#f_1)">
<path d="M275.5 1029.5L1257 836L1355.5 35L275.5 1029.5Z" fill="url(#p1_1)"/>
</g>
<rect x="521" y="836" width="739" height="420" fill="url(#p2_1)"/>
<rect x="84" y="581" width="442" height="678" fill="url(#p3_1)"/>
</g>
<defs>
<filter id="f_1" x="256.2" y="15.7" width="1118.6" height="1033.1" filterUnits="userSpaceOnUse" color-interpolation-filters="sRGB">
<feFlood flood-opacity="0" result="BackgroundImageFix"/>
<feBlend mode="normal" in="SourceGraphic" in2="BackgroundImageFix" result="shape"/>
<feGaussianBlur stdDeviation="9.65" result="effect1_foregroundBlur"/>
</filter>
<linearGradient id="p0_1" x1="995" y1="520.5" x2="58.5" y2="526" gradientUnits="userSpaceOnUse">
<stop stop-color="#4361EE"/>
<stop offset="1" stop-color="#2EC4B6"/>
</linearGradient>
<linearGradient id="p1_1" x1="873" y1="509.5" x2="985" y2="304" gradientUnits="userSpaceOnUse">
<stop stop-color="#6C8AFF"/>
<stop offset="1" stop-color="#3730A3" stop-opacity="0"/>
</linearGradient>
<linearGradient id="p2_1" x1="493.413" y1="836" x2="938.345" y2="1477.81" gradientUnits="userSpaceOnUse">
<stop stop-color="#3730A3"/>
<stop offset="1" stop-color="#6D28D9"/>
</linearGradient>
<linearGradient id="p3_1" x1="305" y1="581" x2="305" y2="1259" gradientUnits="userSpaceOnUse">
<stop stop-color="#2EC4B6"/>
<stop offset="1" stop-color="#0EA5E9"/>
</linearGradient>
</defs>
</svg>